<svg xmlns="http://www.w3.org/2000/svg" width="900" height="650" viewBox="0 0 900 650" fill="none">
<defs><linearGradient id="silver" x1="420" y1="40" x2="655" y2="400" gradientUnits="userSpaceOnUse"><stop stop-color="#171717"/><stop offset=".24" stop-color="#343434"/><stop offset=".55" stop-color="#4e4e4e"/><stop offset=".8" stop-color="#777"/><stop offset="1" stop-color="#acacac"/></linearGradient><linearGradient id="crease" x1="430" y1="15" x2="670" y2="325" gradientUnits="userSpaceOnUse"><stop stop-color="#111" stop-opacity=".2"/><stop offset=".44" stop-color="#151515" stop-opacity=".5"/><stop offset=".62" stop-color="#aaa" stop-opacity=".18"/><stop offset="1" stop-color="#ddd" stop-opacity=".02"/></linearGradient><filter id="grain"><feTurbulence type="fractalNoise" baseFrequency=".72" numOctaves="3" stitchTiles="stitch"/><feColorMatrix type="saturate" values="0"/><feComponentTransfer><feFuncA type="linear" slope=".09"/></feComponentTransfer><feBlend in="SourceGraphic" mode="soft-light"/></filter><clipPath id="shape"><path d="M60-80H960V660C805 514 698 467 528 371C297 241 155 87 60-80Z"/></clipPath></defs>
<g clip-path="url(#shape)" filter="url(#grain)"><path d="M60-80H960V660C805 514 698 467 528 371C297 241 155 87 60-80Z" fill="url(#silver)"/><path d="M390-80C455 153 705 356 960 660L960-80Z" fill="url(#crease)"/><path d="M498-80C548 174 735 374 960 660C671 305 551 155 498-80Z" fill="#b5b5b5" opacity=".09"/></g></svg>
